<?xml version="1.0" encoding="utf-8"?>
<!-- Generator: Adobe Illustrator 16.0.0, SVG Export Plug-In . SVG Version: 6.00 Build 0)  -->
<!DOCTYPE svg PUBLIC "-//W3C//DTD SVG 1.1//EN" "http://www.w3.org/Graphics/SVG/1.1/DTD/svg11.dtd">
<svg version="1.1" id="Layer_1" xmlns="http://www.w3.org/2000/svg" xmlns:xlink="http://www.w3.org/1999/xlink" x="0px" y="0px"
	 width="15.391px" height="15.391px" viewBox="0.304 0.43 15.391 15.391" enable-background="new 0.304 0.43 15.391 15.391"
	 xml:space="preserve">
<path fill="none" stroke="#02A2FF" stroke-width="0.7" stroke-miterlimit="10" d="M6.623,14.896l-0.006,0.006l-0.146,0.109
	l-0.491,0.367c-0.137,0.104-0.324,0.121-0.482,0.043c-0.158-0.078-0.252-0.234-0.252-0.41V14.4v-0.184v-0.008v-0.115v-1.377H3.868
	H2.491c-1.013,0-1.836-0.824-1.836-1.836V2.616c0-1.013,0.824-1.836,1.836-1.836h11.018c1.014,0,1.837,0.824,1.837,1.836v8.265
	c0,1.012-0.823,1.836-1.837,1.836H9.529L6.623,14.896z"/>
<path fill="#02A2FF" d="M8,3.001c-1.866,0-3.377,1.512-3.377,3.377v0.65c0,0.216-0.173,0.39-0.389,0.39
	c-0.216,0-0.39-0.173-0.39-0.39v-0.65c0-2.296,1.86-4.156,4.156-4.156s4.156,1.86,4.156,4.156v2.34c0,0.789-0.64,1.428-1.43,1.428
	l-1.791,1c-0.135,0.233-0.387,0.389-0.676,0.389H7.741c-0.431,0-0.779-0.349-0.779-0.779S7.31,9.978,7.741,9.978H8.26
	c0.289,0,0.541,0.157,0.676,0.389l1.793-1c0.357,0,0.649-0.289,0.649-0.647v-2.34C11.378,4.513,9.866,3.001,8,3.001z"/>
<path fill="#02A2FF" d="M3.867,5.6h0.26c0.287,0,0.52,0.232,0.52,0.52v1.818c0,0.287-0.233,0.52-0.52,0.52h-0.26
	c-0.573,0-1.039-0.465-1.039-1.039v-0.78C2.828,6.066,3.294,5.6,3.867,5.6z"/>
<path fill="#02A2FF" d="M12.167,5.6c0.574,0,1.039,0.466,1.039,1.039v0.78c0,0.574-0.465,1.039-1.039,1.039h-0.259
	c-0.288,0-0.521-0.232-0.521-0.52V6.12c0-0.288,0.232-0.52,0.521-0.52H12.167z"/>
</svg>
